<svg width="1920" height="1196" viewBox="0 0 1920 1196" fill="none" xmlns="http://www.w3.org/2000/svg">
<path d="M969.025 611.494C940.056 302.329 911.084 -6.83539 882.115 -316H1047.86C1021.58 -6.83539 995.301 302.329 969.025 611.494Z" fill="#1E1E2E"/>
<path d="M969.023 611.493C1039.54 305.472 1110.06 -0.551727 1180.58 -306.573L1342.32 -281.807C1217.89 15.9609 1093.46 313.726 969.023 611.493Z" fill="#1E1E2E"/>
<path d="M969.023 611.493C1135.62 323.405 1302.23 35.3169 1468.83 -252.771L1618.74 -204.435C1402.17 67.5411 1185.6 339.517 969.023 611.493Z" fill="#1E1E2E"/>
<path d="M969.022 611.493C1223.65 355.262 1478.28 99.0309 1732.91 -157.197L1863.75 -87.6269C1565.51 145.413 1267.27 378.453 969.02 611.493H969.022Z" fill="#1E1E2E"/>
<path d="M969.023 611.494C1299.38 399.506 1629.73 187.517 1960.08 -24.4707L2065.53 62.9717C1700.03 245.812 1334.53 428.653 969.023 611.494Z" fill="#1E1E2E"/>
<path d="M969.023 611.494C1359.13 453.996 1749.24 296.497 2139.34 138.996L2214.3 240.084C1799.21 363.886 1384.12 487.692 969.023 611.494Z" fill="#1E1E2E"/>
<path d="M969.023 611.494C1400.03 516.096 1831.03 420.7 2262.04 325.302L2302.89 435.147C1858.27 493.93 1413.65 552.71 969.026 611.494H969.023Z" fill="#1E1E2E"/>
<path d="M969.023 611.494C1420.1 582.807 1871.17 554.124 2322.24 525.438L2327 638.733C1874.34 629.651 1421.68 620.572 969.023 611.491V611.494Z" fill="#1E1E2E"/>
<path d="M969.023 611.493C1418.36 650.906 1867.7 690.321 2317.03 729.734L2285.48 841.002C1846.66 764.498 1407.84 687.994 969.023 611.49V611.493Z" fill="#1E1E2E"/>
<path d="M969.022 611.494C1394.91 717.103 1820.79 822.708 2246.67 928.317L2180.32 1032.18C1776.55 891.951 1372.79 751.724 969.02 611.494H969.022Z" fill="#1E1E2E"/>
<path d="M969.023 611.494C1350.87 778.192 1732.72 944.887 2114.56 1111.59L2016.63 1203.02C1667.43 1005.85 1318.23 808.669 969.026 611.494H969.023Z" fill="#1E1E2E"/>
<path d="M969.023 611.494C1288.38 831.223 1607.73 1050.95 1927.08 1270.68L1802.29 1345.28C1524.54 1100.68 1246.78 856.089 969.023 611.494Z" fill="#1E1E2E"/>
<path d="M969.023 611.493C1210.45 873.635 1451.87 1135.78 1693.29 1397.92L1547.69 1452.06C1354.8 1171.87 1161.91 891.68 969.023 611.49V611.493Z" fill="#1E1E2E"/>
<path d="M969.023 611.494C1120.85 903.378 1272.67 1195.26 1424.49 1487.14L1265.11 1518.22C1166.41 1215.98 1067.72 913.734 969.023 611.494Z" fill="#1E1E2E"/>
<path d="M969.025 611.494C1023.91 919.011 1078.8 1226.53 1133.69 1534.04L968.223 1540.55C968.49 1230.87 968.76 921.18 969.027 611.494H969.025Z" fill="#1E1E2E"/>
<path d="M969.026 611.494C924.325 919.782 879.62 1228.07 834.919 1536.35L671.371 1517.98C770.588 1215.82 869.806 913.655 969.026 611.494Z" fill="#1E1E2E"/>
<path d="M969.023 611.494C826.892 905.651 684.76 1199.81 542.631 1493.97L388.906 1451.59C582.279 1171.56 775.651 891.526 969.023 611.494Z" fill="#1E1E2E"/>
<path d="M969.024 611.494C736.333 877.302 503.642 1143.11 270.954 1408.92L134.484 1344.6C412.664 1100.23 690.844 855.861 969.024 611.494Z" fill="#1E1E2E"/>
<path d="M969.024 611.494C657.021 836.108 345.019 1060.72 33.0163 1285.33L-79.6035 1202.18C269.939 1005.28 619.482 808.39 969.024 611.494Z" fill="#1E1E2E"/>
<path d="M969.023 611.494C592.788 784.055 216.554 956.615 -159.679 1129.18L-243.006 1031.2C161.005 891.299 565.013 751.396 969.023 611.494Z" fill="#1E1E2E"/>
<path d="M969.025 611.493C546.744 723.662 124.462 835.831 -297.819 947.997L-347.824 839.936C91.1263 763.788 530.077 687.639 969.028 611.49L969.025 611.493Z" fill="#1E1E2E"/>
<path d="M969.024 611.494C521.106 657.849 73.1875 704.201 -374.731 750.556L-389 637.634C63.6738 628.92 516.348 620.208 969.021 611.494H969.024Z" fill="#1E1E2E"/>
<path d="M969.024 611.493C517.118 589.792 65.2125 568.091 -386.69 546.392L-364.531 434.069C79.9881 493.21 524.507 552.352 969.027 611.496L969.024 611.493Z" fill="#1E1E2E"/>
<path d="M969.025 611.494C534.976 522.786 100.925 434.081 -333.124 345.374L-275.608 239.076C139.269 363.215 554.147 487.354 969.025 611.494Z" fill="#1E1E2E"/>
<path d="M969.024 611.493C573.81 460.069 178.595 308.643 -216.622 157.219L-126.53 62.085C238.655 245.22 603.839 428.358 969.024 611.493Z" fill="#1E1E2E"/>
<path d="M969.026 611.494C631.746 404.67 294.469 197.846 -42.8105 -8.9776L75.5017 -88.3518C373.342 144.931 671.182 378.211 969.023 611.494H969.026Z" fill="#1E1E2E"/>
<path d="M969.024 611.494C705.986 359.268 442.945 107.042 179.906 -145.187L320.724 -204.963C536.824 67.1893 752.924 339.342 969.027 611.491L969.024 611.494Z" fill="#1E1E2E"/>
<path d="M969.026 611.494C792.939 326.055 616.852 40.6184 440.766 -244.821L597.279 -282.109C721.194 15.7584 845.111 313.626 969.026 611.491V611.494Z" fill="#1E1E2E"/>
</svg>