<?xml version="1.0" encoding="utf-8"?>
<!-- Generator: Adobe Illustrator 27.0.0, SVG Export Plug-In . SVG Version: 6.00 Build 0)  -->
<svg version="1.0" id="Layer_1" xmlns="http://www.w3.org/2000/svg" xmlns:xlink="http://www.w3.org/1999/xlink" x="0px" y="0px"
	 viewBox="0 0 1080 1080" enable-background="new 0 0 1080 1080" xml:space="preserve">
<g>
	<path fill="#211F1B" d="M868.8,814.58c0,8.81-1.38,17.29-3.94,25.26c-1.1,3.44-2.42,6.78-3.95,10H710.97
		c-1.53-3.22-2.85-6.56-3.95-10c-2.56-7.97-3.94-16.45-3.94-25.26c0-1.2,0.03-2.39,0.08-3.58c0.14-3.39,0.49-6.73,1.04-10
		c6.49-39.26,40.68-69.29,81.75-69.29c41.07,0,75.25,30.03,81.74,69.29c0.55,3.27,0.9,6.61,1.04,10
		C868.77,812.19,868.8,813.38,868.8,814.58z"/>
	<path fill="#211F1B" d="M372.15,814.58c0,8.81-1.38,17.29-3.94,25.26c-1.1,3.44-2.42,6.78-3.95,10H214.31
		c-1.53-3.22-2.85-6.56-3.95-10c-2.56-7.97-3.94-16.45-3.94-25.26c0-1.2,0.03-2.39,0.08-3.58c0.14-3.39,0.49-6.73,1.04-10
		c6.49-39.26,40.68-69.29,81.75-69.29s75.25,30.03,81.74,69.29c0.55,3.27,0.9,6.61,1.04,10
		C372.12,812.19,372.15,813.38,372.15,814.58z"/>
	<circle cx="289.29" cy="814.57" r="75.59"/>
	<circle fill="#FFFFFF" cx="289.29" cy="814.57" r="35.1"/>
	<circle fill="#A5A6A8" cx="289.29" cy="814.57" r="21.6"/>
	<circle cx="785.13" cy="814.57" r="75.59"/>
	<circle fill="#FFFFFF" cx="785.13" cy="814.57" r="35.1"/>
	<circle fill="#A5A6A8" cx="785.13" cy="814.57" r="21.6"/>
	<path fill="#FF2626" d="M604.86,513.89h-82.23c-8.78,0-15.92,7.14-15.92,15.92v269.14c0,0.69,0.05,1.38,0.13,2.05
		c0.01,0.08,0.02,0.15,0.03,0.23c0.38,2.63,1.4,5.05,2.91,7.1c2.89,3.96,7.58,6.54,12.85,6.54h82.23c6.01,0,11.25-3.34,13.95-8.27
		c0.74-1.33,1.29-2.79,1.62-4.32c0.09-0.42,0.16-0.85,0.21-1.28c0.1-0.67,0.14-1.36,0.14-2.05V529.81
		C620.78,521.03,613.64,513.89,604.86,513.89z M517.01,532.93c0-4.54,3.69-8.23,8.23-8.23h77.01c4.54,0,8.23,3.69,8.23,8.23v86.95
		c0,4.54-3.69,8.23-8.23,8.23h-77.01c-4.54,0-8.23-3.69-8.23-8.23V532.93z M610.29,657.55c-0.1,1.8-1.55,3.2-3.31,3.31
		c-8.76,0.33-17.51-0.37-26.24-1.22c-2.71-0.33-2.7-4.25,0-4.57c6.56-0.69,13.11-1.11,19.68-1.3c2.19-0.02,4.37-0.03,6.56,0.09
		C608.91,653.96,610.4,655.61,610.29,657.55z"/>
	<path fill="#9C9C9C" d="M960.97,825.42c0,7.95-6.47,14.42-14.42,14.42h-71.23c1.32-4.67,2.28-9.48,2.85-14.42
		c0.42-3.56,0.64-7.18,0.64-10.84c0-1.2-0.02-2.39-0.07-3.58h67.81C954.5,811,960.97,817.47,960.97,825.42z"/>
	<path fill="#9C9C9C" d="M199.91,839.84h-66.46c-7.95,0-14.42-6.47-14.42-14.42S125.5,811,133.45,811h63.05
		c-0.06,1.19-0.08,2.38-0.08,3.58c0,3.66,0.22,7.28,0.64,10.84C197.63,830.36,198.59,835.17,199.91,839.84z"/>
	<path fill="#9C9C9C" d="M696.56,839.84h-317.9c1.32-4.67,2.28-9.48,2.86-14.42c0.42-3.56,0.63-7.18,0.63-10.84
		c0-1.2-0.02-2.39-0.07-3.58h121.06c4.04,6.52,11.27,10.87,19.49,10.87h82.23c8.22,0,15.45-4.35,19.49-10.87h68.8
		c-0.06,1.19-0.08,2.38-0.08,3.58c0,3.66,0.21,7.28,0.63,10.84C694.28,830.36,695.25,835.17,696.56,839.84z"/>
	<path fill="#FF2626" d="M900.42,199.84H281.84c-54.62,0-99.05,44.44-99.05,99.06v339.95c0,9.04-3.22,17.81-9.06,24.7l-28.8,34
		c-4.19,4.95-6.55,11.21-6.67,17.69c-0.01,0.18-0.01,0.37-0.01,0.55V801h59.16c1.1-7.5,3.11-14.71,5.9-21.52
		c3.4-8.3,7.98-16.01,13.51-22.91c1.96-2.45,4.04-4.79,6.23-7.02c3.96-4.04,8.3-7.71,12.94-10.98c2.73-1.93,5.57-3.7,8.51-5.33
		c1.06-0.58,2.13-1.15,3.21-1.69c12.51-6.3,26.64-9.84,41.58-9.84s29.07,3.54,41.58,9.84c1.08,0.54,2.15,1.11,3.21,1.69
		c2.94,1.63,5.78,3.4,8.51,5.33c4.64,3.27,8.97,6.94,12.93,10.98c2.2,2.23,4.28,4.57,6.24,7.02c5.53,6.9,10.1,14.61,13.5,22.91
		c2.79,6.81,4.79,14.02,5.9,21.52h118.65c-0.07-0.67-0.1-1.36-0.1-2.05V529.81c0-12.64,10.28-22.92,22.92-22.92h82.23
		c12.64,0,22.92,10.28,22.92,22.92v269.14c0,0.69-0.03,1.38-0.1,2.05h66.38c1.1-7.5,3.1-14.71,5.9-21.52
		c13.87-33.86,47.18-57.77,85.98-57.77c38.79,0,72.1,23.91,85.97,57.77c2.79,6.81,4.79,14.02,5.9,21.52h62.31V239.54
		C940.12,217.65,922.31,199.84,900.42,199.84z M364.59,275.24c0-8.23,6.69-14.92,14.92-14.92h86.17c8.23,0,14.92,6.69,14.92,14.92
		v86.17c0,8.23-6.69,14.92-14.92,14.92h-86.17c-8.23,0-14.92-6.69-14.92-14.92V275.24z M222.21,275.24c0-8.23,6.7-14.92,14.92-14.92
		h86.18c8.23,0,14.92,6.69,14.92,14.92v86.17c0,8.23-6.69,14.92-14.92,14.92h-86.18c-8.22,0-14.92-6.69-14.92-14.92V275.24z
		 M248.1,642.55c-3.27,0-6.37-0.69-9.19-1.93c-0.06-0.02-0.12-0.05-0.19-0.08c-7.97-3.59-13.54-11.61-13.54-20.91v-89.82
		c0-12.64,10.28-22.92,22.92-22.92h15.53c5.47-5.74,12.94-9.47,22.26-9.47c2.29,0,5.48,0.37,8.82,1.86
		c9.24-17.07,24.51-29.21,42.1-36.13c-2.1-2.36-4.41-5.23-4.81-8.66c-0.61-5.26,1.42-10.4,5.59-14.11
		c4.86-4.33,11.61-5.88,18.52-4.24c12.45,2.94,16.42,14.41,17.63,20.11c25.63-0.46,51.84,5.98,72.75,21.02
		c8.53-9.63,21.97-16.64,34.81-12.38c2.86,0.95,5.86,2.64,8.09,4.66l0.72,0.63l0.65,0.72c0.86,0.8,1.71,2.15,2.35,3.13
		c5,8.37,3.34,20.95-5.58,26.06c-4.42,2.95-10.09,3.39-14.97,3.98c-0.74,0.09-1.45,0.21-2.15,0.36
		c11.05,21.87,15.03,55.03,15.03,77.58c0,18.21-2.41,60.54-24.8,60.54h-60c-3.12,4.71-7.14,8.79-12.18,11.77
		c-9.6,5.62-23.44,6.83-31.94-1.36c-3.18-3.23-5.01-6.82-5.69-10.41H248.1z M926.96,529.81v89.82c0,12.64-10.28,22.92-22.92,22.92
		H666.22c-12.64,0-22.92-10.28-22.92-22.92v-89.82c0-12.64,10.28-22.92,22.92-22.92h237.82
		C916.67,506.89,926.96,517.17,926.96,529.81z M791.71,275.24c0-8.23,6.7-14.92,14.92-14.92h86.18c8.22,0,14.92,6.69,14.92,14.92
		v86.17c0,8.23-6.7,14.92-14.92,14.92h-86.18c-8.22,0-14.92-6.69-14.92-14.92V275.24z M649.33,275.24c0-8.23,6.69-14.92,14.92-14.92
		h86.17c8.23,0,14.93,6.69,14.93,14.92v86.17c0,8.23-6.7,14.92-14.93,14.92h-86.17c-8.23,0-14.92-6.69-14.92-14.92V275.24z
		 M521.88,376.33c-8.23,0-14.92-6.69-14.92-14.92v-86.17c0-8.23,6.69-14.92,14.92-14.92h86.17c8.23,0,14.92,6.69,14.92,14.92v86.17
		c0,8.23-6.69,14.92-14.92,14.92H521.88z M581.59,479.64c-8.23,0-14.92-6.7-14.92-14.93v-47.28c0-8.23,6.69-14.92,14.92-14.92
		h312.75c8.23,0,14.92,6.69,14.92,14.92v47.28c0,8.23-6.69,14.93-14.92,14.93H581.59z"/>
	<path fill="#B8EAFF" d="M919.96,529.81v89.82c0,8.78-7.14,15.92-15.92,15.92H666.22c-8.78,0-15.92-7.14-15.92-15.92v-89.82
		c0-8.78,7.14-15.92,15.92-15.92h237.82c5.87,0,11.01,3.19,13.77,7.94C919.17,524.17,919.96,526.9,919.96,529.81z"/>
	<path fill="#B8EAFF" d="M902.26,417.43v47.28c0,4.37-3.55,7.93-7.92,7.93H581.59c-4.37,0-7.92-3.56-7.92-7.93v-47.28
		c0-4.37,3.55-7.92,7.92-7.92h312.75C898.72,409.51,902.26,413.06,902.26,417.43z"/>
	<path fill="#B8EAFF" d="M331.23,275.24v86.17c0,4.37-3.55,7.92-7.92,7.92h-86.18c-1.03,0-2.02-0.2-2.93-0.56
		c-2.92-1.17-4.99-4.03-4.99-7.36v-86.17c0-4.37,3.56-7.92,7.92-7.92h86.18c2.2,0,4.18,0.9,5.62,2.34
		C330.35,271.09,331.23,273.06,331.23,275.24z"/>
	<path fill="#B8EAFF" d="M473.6,275.24v86.17c0,4.37-3.55,7.92-7.92,7.92h-86.17c-1.04,0-2.03-0.2-2.94-0.56
		c-2.92-1.18-4.98-4.03-4.98-7.36v-86.17c0-4.37,3.55-7.92,7.92-7.92h86.17c2.2,0,4.19,0.9,5.62,2.35
		C472.72,271.1,473.6,273.07,473.6,275.24z"/>
	<path fill="#B8EAFF" d="M615.98,275.24v86.17c0,4.37-3.55,7.92-7.92,7.92h-86.17c-1.03,0-2.02-0.2-2.93-0.56
		c-2.92-1.16-4.99-4.02-4.99-7.36v-86.17c0-4.37,3.55-7.92,7.92-7.92h86.17c2.2,0,4.19,0.9,5.62,2.35
		C615.09,271.1,615.98,273.07,615.98,275.24z"/>
	<path fill="#B8EAFF" d="M758.35,275.24v86.17c0,4.37-3.56,7.92-7.93,7.92h-86.17c-1.03,0-2.02-0.2-2.93-0.56
		c-2.92-1.17-4.99-4.03-4.99-7.36v-86.17c0-4.37,3.55-7.92,7.92-7.92h86.17c2.2,0,4.2,0.9,5.63,2.35
		C757.48,271.1,758.35,273.07,758.35,275.24z"/>
	<path fill="#B8EAFF" d="M900.73,275.24v86.17c0,4.37-3.56,7.92-7.92,7.92h-86.18c-1.03,0-2.01-0.2-2.92-0.56
		c-2.92-1.16-5-4.02-5-7.36v-86.17c0-4.37,3.56-7.92,7.92-7.92h86.18c2.2,0,4.19,0.9,5.62,2.35
		C899.84,271.1,900.73,273.07,900.73,275.24z"/>
	<path fill="#B8EAFF" d="M603.49,532.93v86.95c0,0.68-0.55,1.23-1.23,1.23h-77.01c-0.68,0-1.23-0.55-1.23-1.23v-86.95
		c0-0.68,0.55-1.23,1.23-1.23h77.01C602.93,531.7,603.49,532.25,603.49,532.93z"/>
	<path fill="#96D6FF" d="M366.64,456.56c-0.32,0.02-0.65,0.04-0.97,0.06c-1.32,0.1-2.64,0.23-3.95,0.38
		c-2.77,0.32-5.53,0.75-8.26,1.29c-2.2-3.65-5.67-6.51-9.48-8.28c-1.24-0.62-2.45,1.06-1.44,2.04c2.22,2.11,3.99,4.72,4.88,7.63
		c-1.16,0.31-2.32,0.63-3.47,0.98c-0.38-0.45-0.78-0.91-1.22-1.39c-1.51-1.68-3.59-3.98-3.77-5.59c-0.35-2.96,0.85-5.9,3.28-8.07
		c0.49-0.44,1.02-0.83,1.57-1.17c2.97-1.87,6.76-2.42,10.69-1.49C362.46,444.83,365.51,452.12,366.64,456.56z"/>
	<path fill="#FFFFFF" d="M288.87,503.69L288.87,503.69c-0.96-0.18-1.95-0.27-2.98-0.27c-17.64,0-27.16,16.78-27.16,32.56
		c0,8.09,2.38,15.49,6.7,20.83c4.8,5.96,11.88,9.1,20.46,9.1c0.45,0,0.92-0.02,1.4-0.07c7.26-0.72,17.95-7.1,17.95-27.54
		C305.24,517.99,299.32,505.62,288.87,503.69z M273.5,552.84c-7.05,0-11.06-8.27-11.06-18.47c0-10.19,4.01-18.46,11.06-18.46
		c7.05,0,12.76,6.49,12.76,18.46C286.26,546.35,280.55,552.84,273.5,552.84z"/>
	<path fill="#E1D0CB" d="M292.91,610.63c0,0.3-0.01,0.6-0.02,0.91c-0.06,1.8-0.3,3.7-0.65,5.62c-4.55,0.73-15.6,1.45-21.78-7.03
		c-1.24-1.71-1.93-3.38-2.03-4.98c-0.08-1.15,0.14-2.27,0.67-3.31c1.2-2.37,3.9-4.1,6.41-4.1c2.86,0,5.21,0.8,7.93,1.72
		c2.39,0.81,5.04,1.69,8.23,2.06C292.42,604.24,292.91,607.19,292.91,610.63z"/>
	<path fill="#96D6FF" d="M485.42,475.79l-0.4-0.47c-0.29-0.22-1.13-0.98-1.42-1.22c-2.69-1.9-5.81-3.1-9.11-3.3
		c-9.8-0.4-18.75,5.84-24.64,13.39c-1.2,1.55-3.46,1.82-4.99,0.58c-31.27-24.12-83.46-29.4-117.81-9.17
		c-5.87,3.5-11.25,7.81-15.88,12.81c-4.13,4.45-7.66,9.44-10.58,14.79c5.75,5.41,10.65,15.71,10.65,35.1
		c0,23.39-12.38,31.66-21.76,33.29c0.45,7.28,2.68,12.37,5.04,17.72c2.65,6.01,5.39,12.22,5.39,21.32c0,8.59-3.56,18.91-5.97,24.92
		h56.97c1.69-7.9,8.67-14.62,18.42-15.96c7-1.34,13.92-0.86,20.27-4.18c1.15-0.56,2.25,0.03,2.71,0.95
		c0.36,0.71,0.32,1.62-0.37,2.32c-3.7,3.81-9.15,5.67-14.13,6.72c-4.37,0.99-8.96,1.51-12.63,3.68c-9.01,5.02-8.04,17.22,1.76,20.54
		c5.82,1.8,12.36,0.54,17.71-2.15c7.48-3.86,13.36-11.46,17.34-19.47c0.5-1.2,1.88-1.79,3.07-1.31c0.07,0.02,0.13,0.05,0.19,0.08
		c1.01,0.5,1.51,1.63,1.26,2.68c-0.53,2.17-1.23,4.13-2.08,6.1h56.21c13.14,0,17.8-28.84,17.8-53.54c0-23.72-4.54-55.64-14.63-75.13
		c-0.66,0.37-1.31,0.76-1.95,1.21c-0.94,0.59-2.18,0.32-2.78-0.61c-0.5-0.79-0.39-1.8,0.22-2.45c3.03-3.47,7.54-5.97,11.98-7.05
		c5.55-1.36,11.01-2.2,14.9-6.46C489.54,487.13,489.34,479.85,485.42,475.79z M336,576.13c-0.81,1.44-2.88,4.12-7.7,6.03
		c0.8,3.05,2.53,7.27,2.55,7.31c0.29,0.71,0,1.53-0.67,1.9c-5.32,2.86-11.32,4.28-11.57,4.34c-0.11,0.02-0.23,0.03-0.34,0.03
		c-0.5,0-0.98-0.25-1.26-0.68c-0.13-0.21-3.17-4.94-5.56-10.95c-7.97-1.16-9.84-5.82-10.25-7.45c-0.94-3.68,0.84-7.67,4.29-10.02
		c-0.07-0.31-0.11-0.62-0.11-0.92c0.01-1.75,1.78-5.56,8.31-6.09c5.35-0.44,8.58,1.24,9.78,3.11c4.99,0.6,10.81,2.94,12.8,6.48
		C337.39,571.22,337.29,573.81,336,576.13z M395.98,594.84c-12.79,0-24.66-3.75-33.44-10.55c-10.78-8.36-16.47-21.02-16.47-36.62
		c0-25.45,19.56-52.91,51.16-52.91c31.6,0,48.66,26.36,48.66,51.16C445.89,576.14,419.98,594.84,395.98,594.84z M481.3,485.52
		c-0.84-2.12-2.82-2.89-4.89-3.15c-4.36-0.38-8.67,1.55-11.88,4.54c-1.67,1.55-3.07,3.44-4.45,5.53c-0.35,0.6-1.33,0.23-1.21-0.44
		c0.73-5.39,4.58-10.39,9.77-12.37c4.85-2.19,13.96-0.99,13.94,5.75C482.53,486.09,481.5,486.2,481.3,485.52z"/>
	<path fill="#FFFFFF" d="M421.19,508.01c-6.42-4.5-14.43-7.25-23.96-7.25c-27.9,0-45.16,24.35-45.16,46.91
		c0,23.73,14.43,35.51,30.41,39.53c4.47,1.12,9.07,1.64,13.5,1.64c21.12,0,43.91-16.41,43.91-42.92
		C439.89,531.55,433.45,516.6,421.19,508.01z M374.82,568.91c-9.21,0-14.45-10.79-14.45-24.11s5.24-24.12,14.45-24.12
		c9.2,0,16.67,8.48,16.67,24.12S384.02,568.91,374.82,568.91z"/>
	<path fill="#B8EAFF" d="M290.44,624.43c-1.41,4.66-3.08,8.79-4.09,11.12H248.1c-0.96,0-1.9-0.1-2.81-0.26l8.44-15.44l19.73,9.22
		c0.89,0.42,1.83,0.62,2.75,0.62c2.44,0,4.79-1.39,5.89-3.75c0.25-0.54,0.41-1.09,0.51-1.64c1.56,0.19,3.07,0.28,4.47,0.28
		C288.28,624.58,289.41,624.52,290.44,624.43z"/>
	<path fill="#B8EAFF" d="M247.38,616.87l-8.57,15.67c-4.01-2.9-6.63-7.6-6.63-12.91v-9.87L247.38,616.87z"/>
	<path fill="#B8EAFF" d="M288.86,593.84c-1.07-0.3-2.11-0.65-3.18-1.01c-3.03-1.03-6.16-2.09-10.17-2.09
		c-5.16,0-10.24,3.19-12.65,7.93c-1.71,3.36-1.89,7.13-0.6,10.82l-30.08-14.08v-65.6c0-8.78,7.14-15.92,15.92-15.92h10.35
		c-3.77,6.6-5.72,14.44-5.72,22.09c0,9.46,2.85,18.2,8.03,24.61c5.32,6.58,12.78,10.4,21.72,11.17c0.5,8.7,3.21,14.87,5.64,20.37
		C288.37,592.7,288.62,593.27,288.86,593.84z"/>
	<path fill="#FFFFFF" d="M327.57,589.33c-0.96,0.46-1.93,0.88-2.86,1.25c-2.37,0.96-4.52,1.6-5.74,1.93
		c-0.87-1.45-2.61-4.5-4.17-8.15c0.19,0.01,0.36,0.02,0.55,0.02c0.48,0,0.97-0.01,1.49-0.03c2.24-0.1,4.22-0.33,5.98-0.65
		c0.94-0.17,1.82-0.37,2.64-0.59C326.04,585.28,326.98,587.83,327.57,589.33z"/>
	<path fill="#E1D0CB" d="M333.38,574.67c-2.14,3.83-8.37,6.33-16.67,6.68c-0.66,0.03-1.29,0.04-1.91,0.02h-0.01
		c-5.9-0.11-9.84-2.1-10.69-5.44c-0.59-2.35,0.55-4.92,2.76-6.58c1.36,1.68,3.53,3.01,6.02,3.01c3.84,0,7.92-2.6,9.9-5.17
		c0.37-0.47,0.66-0.95,0.87-1.41c4.5,0.65,8.77,2.7,10,4.91C334.27,571.79,334.17,573.24,333.38,574.67z"/>
	<path fill="#E1D0CB" d="M401.91,628.15c-3.98,7.96-9.83,15.48-17.26,19.32c-3.01,1.51-6.39,2.57-9.81,2.89h-0.01
		c-2.66,0.25-5.34,0.05-7.89-0.74c-9.8-3.32-10.77-15.52-1.76-20.54c3.67-2.17,8.26-2.69,12.63-3.68c4.76-1,9.93-2.77,13.61-6.24
		c1.36-0.59,2.98-0.45,4.56,0.16C399.67,620.75,403.05,624.78,401.91,628.15z"/>
	<g>
		<g>
			<g>
				<path fill="#FEFFFF" d="M138.26,731.55h109.45c-1.08,0.54-2.15,1.11-3.21,1.69c-2.94,1.63-5.78,3.4-8.51,5.33
					c-4.64,3.27-8.98,6.94-12.94,10.98h-84.8V732.1C138.25,731.92,138.25,731.73,138.26,731.55z"/>
				<path fill="#FEFFFF" d="M499.71,731.55v18H355.52c-3.96-4.04-8.29-7.71-12.93-10.98c-2.73-1.93-5.57-3.7-8.51-5.33
					c-1.06-0.58-2.13-1.15-3.21-1.69H499.71z"/>
				<polygon fill="#FEFFFF" points="940.12,672.55 940.12,690.55 729.68,690.55 670.7,749.55 627.78,749.55 627.78,731.55 
					663.24,731.55 722.24,672.55 				"/>
			</g>
		</g>
	</g>
	<path fill="#76B8E3" d="M472.33,480.91c8.56-0.89,9.49,2.04,9.59,4.77s-5.5,6.32-12.79,7.52c-7.3,1.2-8.99,0.2-9.19-1.7
		C459.73,489.61,463.63,481.81,472.33,480.91z"/>
	<path fill="#76B8E3" d="M478.44,582.01c0,24.7-4.66,53.54-17.8,53.54h-37.58c27.69-7.85,50.67-73.86,36.02-128.07
		c0.6,0.93,1.84,1.2,2.78,0.61c0.64-0.45,1.29-0.84,1.95-1.21C473.9,526.37,478.44,558.29,478.44,582.01z"/>
	<path fill="#76B8E3" d="M366.64,456.56c-0.32,0.02-0.65,0.04-0.97,0.06c-1.32,0.1-2.64,0.23-3.95,0.38
		c-2.69-8.78-10.8-14.83-17.91-12.56c2.97-1.87,6.76-2.42,10.69-1.49C362.46,444.83,365.51,452.12,366.64,456.56z"/>
	<path fill="#DEDEDE" d="M439.89,545.92c0,26.51-22.79,42.92-43.91,42.92c-4.43,0-9.03-0.52-13.5-1.64
		c47.92,6.93,60.58-58.78,38.71-79.19C433.45,516.6,439.89,531.55,439.89,545.92z"/>
	<path fill="#DEDEDE" d="M305.24,538.3c0,20.44-10.69,26.82-17.95,27.54c17.41-6.44,13.93-57.39,1.58-62.15
		C299.32,505.62,305.24,517.99,305.24,538.3z"/>
	<path fill="#BFB1AD" d="M333.38,574.67c-2.14,3.83-8.37,6.33-16.67,6.68c-0.66,0.03-1.29,0.04-1.91,0.02
		c9.06-0.27,13.18-9.53,7.98-14.18c0.37-0.47,0.66-0.95,0.87-1.41c4.5,0.65,8.77,2.7,10,4.91
		C334.27,571.79,334.17,573.24,333.38,574.67z"/>
	<path fill="#E0E0E0" d="M327.57,589.33c-0.96,0.46-1.93,0.88-2.86,1.25c-0.47-1.29-1.43-4.12-1.89-6.88
		c0.94-0.17,1.82-0.37,2.64-0.59C326.04,585.28,326.98,587.83,327.57,589.33z"/>
	<path fill="#BFB1AD" d="M401.91,628.15c-3.98,7.96-9.83,15.48-17.26,19.32c-3.01,1.51-6.39,2.57-9.81,2.89
		c19-2.96,21.14-31.04,21.14-31.04C399.67,620.75,403.05,624.78,401.91,628.15z"/>
	<path fill="#BFB1AD" d="M292.89,611.54c-0.06,1.8-0.3,3.7-0.65,5.62c-4.55,0.73-15.6,1.45-21.78-7.03
		c-1.24-1.71-1.93-3.38-2.03-4.98C273.31,612.88,287.51,612.13,292.89,611.54z"/>
	<g>
		<path d="M950.12,801.26V239.54c0-27.4-22.3-49.7-49.7-49.7H281.84c-60.13,0-109.05,48.93-109.05,109.06v339.95
			c0,6.67-2.38,13.15-6.69,18.24l-28.8,34c-5.84,6.89-9.05,15.67-9.05,24.7v85.77c-10.98,2.39-19.22,12.18-19.22,23.86
			c0,13.47,10.95,24.42,24.42,24.42h80.86c-1.53-3.22-2.85-6.56-3.95-10c-2.56-7.97-3.94-16.45-3.94-25.26
			c0-1.2,0.03-2.39,0.08-3.58c0.14-3.39,0.49-6.73,1.04-10c6.49-39.26,40.68-69.29,81.75-69.29s75.25,30.03,81.74,69.29
			c0.55,3.27,0.9,6.61,1.04,10c0.05,1.19,0.08,2.38,0.08,3.58c0,8.81-1.38,17.29-3.94,25.26c-1.1,3.44-2.42,6.78-3.95,10h346.7
			c-1.53-3.22-2.85-6.56-3.95-10c-2.56-7.97-3.94-16.45-3.94-25.26c0-1.2,0.03-2.39,0.08-3.58c0.14-3.39,0.49-6.73,1.04-10
			c6.49-39.26,40.68-69.29,81.75-69.29c41.07,0,75.25,30.03,81.74,69.29c0.55,3.27,0.9,6.61,1.04,10c0.05,1.19,0.08,2.38,0.08,3.58
			c0,8.81-1.38,17.29-3.94,25.26c-1.1,3.44-2.42,6.78-3.95,10h85.63c13.46,0,24.42-10.95,24.42-24.42
			C970.97,813.17,961.89,803,950.12,801.26z M133.45,839.84c-7.95,0-14.42-6.47-14.42-14.42S125.5,811,133.45,811h63.05
			c-0.06,1.19-0.08,2.38-0.08,3.58c0,8.75,1.22,17.23,3.49,25.26H133.45z M378.66,839.84c2.27-8.03,3.49-16.51,3.49-25.26
			c0-1.2-0.02-2.39-0.07-3.58h121.06c4.04,6.52,11.27,10.87,19.49,10.87h82.23c8.22,0,15.45-4.35,19.49-10.87h68.8
			c-0.06,1.19-0.08,2.38-0.08,3.58c0,8.75,1.22,17.23,3.49,25.26H378.66z M620.78,798.95c0,1.14-0.12,2.26-0.35,3.33
			c-0.33,1.53-0.88,2.99-1.62,4.32c-2.7,4.93-7.94,8.27-13.95,8.27h-82.23c-5.27,0-9.96-2.58-12.85-6.54
			c-1.51-2.05-2.53-4.47-2.91-7.1c-0.1-0.74-0.16-1.51-0.16-2.28V529.81c0-8.78,7.14-15.92,15.92-15.92h82.23
			c8.78,0,15.92,7.14,15.92,15.92V798.95z M785.95,721.71c-46.6,0-85.29,34.5-91.88,79.29h-66.38c0.07-0.67,0.1-1.36,0.1-2.05
			V529.81c0-12.64-10.28-22.92-22.92-22.92h-82.23c-12.64,0-22.92,10.28-22.92,22.92v269.14c0,0.69,0.03,1.38,0.1,2.05H381.16
			c-6.59-44.79-45.28-79.29-91.87-79.29c-46.6,0-85.29,34.5-91.88,79.29h-59.16v-85.21c0-6.67,2.37-13.15,6.68-18.24l28.8-34
			c5.84-6.89,9.06-15.66,9.06-24.7V298.9c0-54.62,44.43-99.06,99.05-99.06h618.58c21.89,0,39.7,17.81,39.7,39.7V801h-62.31
			C871.23,756.21,832.53,721.71,785.95,721.71z M946.54,839.84h-71.23c2.27-8.03,3.49-16.51,3.49-25.26c0-1.2-0.02-2.39-0.07-3.58
			h67.81c7.95,0,14.42,6.47,14.42,14.42S954.5,839.84,946.54,839.84z"/>
		<path d="M904.03,506.89H666.22c-12.64,0-22.92,10.28-22.92,22.92v89.82c0,12.64,10.28,22.92,22.92,22.92h237.82
			c12.64,0,22.92-10.28,22.92-22.92v-89.82C926.96,517.17,916.67,506.89,904.03,506.89z M919.96,619.63
			c0,8.78-7.14,15.92-15.92,15.92H666.22c-8.78,0-15.92-7.14-15.92-15.92v-89.82c0-8.78,7.14-15.92,15.92-15.92h237.82
			c8.78,0,15.92,7.14,15.92,15.92V619.63z"/>
		<path d="M894.34,402.51H581.59c-8.23,0-14.92,6.69-14.92,14.92v47.28c0,8.23,6.69,14.93,14.92,14.93h312.75
			c8.23,0,14.92-6.7,14.92-14.93v-47.28C909.26,409.2,902.57,402.51,894.34,402.51z M902.26,464.71c0,4.37-3.55,7.93-7.92,7.93
			H581.59c-4.37,0-7.92-3.56-7.92-7.93v-47.28c0-4.37,3.55-7.92,7.92-7.92h312.75c4.37,0,7.92,3.55,7.92,7.92V464.71z"/>
		<path d="M323.31,260.32h-86.18c-8.22,0-14.92,6.69-14.92,14.92v86.17c0,8.23,6.7,14.92,14.92,14.92h86.18
			c8.23,0,14.92-6.69,14.92-14.92v-86.17C338.23,267.01,331.54,260.32,323.31,260.32z M331.23,361.41c0,4.37-3.55,7.92-7.92,7.92
			h-86.18c-4.36,0-7.92-3.55-7.92-7.92v-86.17c0-4.37,3.56-7.92,7.92-7.92h86.18c4.37,0,7.92,3.55,7.92,7.92V361.41z"/>
		<path d="M465.68,260.32h-86.17c-8.23,0-14.92,6.69-14.92,14.92v86.17c0,8.23,6.69,14.92,14.92,14.92h86.17
			c8.23,0,14.92-6.69,14.92-14.92v-86.17C480.6,267.01,473.91,260.32,465.68,260.32z M473.6,361.41c0,4.37-3.55,7.92-7.92,7.92
			h-86.17c-4.37,0-7.92-3.55-7.92-7.92v-86.17c0-4.37,3.55-7.92,7.92-7.92h86.17c4.37,0,7.92,3.55,7.92,7.92V361.41z"/>
		<path d="M608.05,260.32h-86.17c-8.23,0-14.92,6.69-14.92,14.92v86.17c0,8.23,6.69,14.92,14.92,14.92h86.17
			c8.23,0,14.92-6.69,14.92-14.92v-86.17C622.98,267.01,616.28,260.32,608.05,260.32z M615.98,361.41c0,4.37-3.55,7.92-7.92,7.92
			h-86.17c-4.37,0-7.92-3.55-7.92-7.92v-86.17c0-4.37,3.55-7.92,7.92-7.92h86.17c4.37,0,7.92,3.55,7.92,7.92V361.41z"/>
		<path d="M750.42,260.32h-86.17c-8.23,0-14.92,6.69-14.92,14.92v86.17c0,8.23,6.69,14.92,14.92,14.92h86.17
			c8.23,0,14.93-6.69,14.93-14.92v-86.17C765.35,267.01,758.65,260.32,750.42,260.32z M758.35,361.41c0,4.37-3.56,7.92-7.93,7.92
			h-86.17c-4.37,0-7.92-3.55-7.92-7.92v-86.17c0-4.37,3.55-7.92,7.92-7.92h86.17c4.37,0,7.93,3.55,7.93,7.92V361.41z"/>
		<path d="M892.8,260.32h-86.18c-8.22,0-14.92,6.69-14.92,14.92v86.17c0,8.23,6.7,14.92,14.92,14.92h86.18
			c8.22,0,14.92-6.69,14.92-14.92v-86.17C907.73,267.01,901.02,260.32,892.8,260.32z M900.73,361.41c0,4.37-3.56,7.92-7.92,7.92
			h-86.18c-4.36,0-7.92-3.55-7.92-7.92v-86.17c0-4.37,3.56-7.92,7.92-7.92h86.18c4.36,0,7.92,3.55,7.92,7.92V361.41z"/>
		<path d="M602.25,524.7h-77.01c-4.54,0-8.23,3.69-8.23,8.23v86.95c0,4.54,3.69,8.23,8.23,8.23h77.01c4.54,0,8.23-3.69,8.23-8.23
			v-86.95C610.49,528.39,606.79,524.7,602.25,524.7z M603.49,619.88c0,0.68-0.55,1.23-1.23,1.23h-77.01c-0.68,0-1.23-0.55-1.23-1.23
			v-86.95c0-0.68,0.55-1.23,1.23-1.23h77.01c0.68,0,1.23,0.55,1.23,1.23V619.88z"/>
		<path d="M397.23,494.76c-31.6,0-51.16,27.46-51.16,52.91c0,15.6,5.69,28.26,16.47,36.62c8.78,6.8,20.65,10.55,33.44,10.55
			c24,0,49.91-18.7,49.91-48.92C445.89,521.12,428.83,494.76,397.23,494.76z M395.98,588.84c-20.26,0-43.91-10.79-43.91-41.17
			c0-22.56,17.26-46.91,45.16-46.91c27.71,0,42.66,23.27,42.66,45.16C439.89,572.43,417.1,588.84,395.98,588.84z"/>
		<path d="M493.11,474.03c-0.64-0.98-1.49-2.33-2.35-3.13l-0.65-0.72l-0.72-0.63c-2.23-2.02-5.23-3.71-8.09-4.66
			c-12.84-4.26-26.28,2.75-34.81,12.38c-20.91-15.04-47.12-21.48-72.75-21.02c-1.21-5.7-5.18-17.17-17.63-20.11
			c-6.91-1.64-13.66-0.09-18.52,4.24c-4.17,3.71-6.2,8.85-5.59,14.11c0.4,3.43,2.71,6.3,4.81,8.66
			c-17.59,6.92-32.86,19.06-42.1,36.13c-3.34-1.49-6.53-1.86-8.82-1.86c-9.32,0-16.79,3.73-22.26,9.47H248.1
			c-12.64,0-22.92,10.28-22.92,22.92v89.82c0,9.3,5.57,17.32,13.54,20.91c0.07,0.03,0.13,0.06,0.19,0.08
			c2.82,1.24,5.92,1.93,9.19,1.93h102.73c0.68,3.59,2.51,7.18,5.69,10.41c8.5,8.19,22.34,6.98,31.94,1.36
			c5.04-2.98,9.06-7.06,12.18-11.77h60c22.39,0,24.8-42.33,24.8-60.54c0-22.55-3.98-55.71-15.03-77.58c0.7-0.15,1.41-0.27,2.15-0.36
			c4.88-0.59,10.55-1.03,14.97-3.98C496.45,494.98,498.11,482.4,493.11,474.03z M342.24,445.61c3.14-2.79,7.6-3.76,12.26-2.66
			c7.96,1.88,11.01,9.17,12.14,13.61c-0.32,0.02-0.65,0.04-0.97,0.06c-4.1,0.31-8.18,0.87-12.21,1.67c-2.2-3.65-5.67-6.51-9.48-8.28
			c-1.24-0.62-2.45,1.06-1.44,2.04c2.22,2.11,3.99,4.72,4.88,7.63c-1.16,0.31-2.32,0.63-3.47,0.98c-0.38-0.45-0.78-0.91-1.22-1.39
			c-1.51-1.68-3.59-3.98-3.77-5.59C338.61,450.72,339.81,447.78,342.24,445.61z M285.89,503.42c12.3,0,19.35,12.71,19.35,34.88
			c0,21.8-12.16,27.61-19.35,27.61c-8.58,0-15.66-3.14-20.46-9.1c-4.32-5.34-6.7-12.74-6.7-20.83
			C258.73,520.2,268.25,503.42,285.89,503.42z M232.18,529.81c0-8.78,7.14-15.92,15.92-15.92h10.35c-3.77,6.6-5.72,14.44-5.72,22.09
			c0,9.46,2.85,18.2,8.03,24.61c5.32,6.58,12.78,10.4,21.72,11.17c0.5,8.7,3.21,14.87,5.64,20.37c0.25,0.57,0.5,1.14,0.74,1.71
			c-1.07-0.3-2.11-0.65-3.18-1.01c-3.03-1.03-6.16-2.09-10.17-2.09c-5.16,0-10.24,3.19-12.65,7.93c-1.71,3.36-1.89,7.13-0.6,10.82
			l-30.08-14.08V529.81z M238.81,632.54c-4.01-2.9-6.63-7.6-6.63-12.91v-9.87l15.2,7.11L238.81,632.54z M286.35,635.55H248.1
			c-0.96,0-1.9-0.1-2.81-0.26l8.44-15.44l19.73,9.22c0.89,0.42,1.83,0.62,2.75,0.62c2.44,0,4.79-1.39,5.89-3.75
			c0.25-0.54,0.41-1.09,0.51-1.64c1.56,0.19,3.07,0.28,4.47,0.28c1.2,0,2.33-0.06,3.36-0.15
			C289.03,629.09,287.36,633.22,286.35,635.55z M292.24,617.16c-4.55,0.73-15.6,1.45-21.78-7.03c-2.15-2.95-2.62-5.81-1.36-8.29
			c1.2-2.37,3.9-4.1,6.41-4.1c2.86,0,5.21,0.8,7.93,1.72c2.39,0.81,5.04,1.69,8.23,2.06c0.75,2.72,1.24,5.67,1.24,9.11
			C292.91,612.7,292.65,614.91,292.24,617.16z M486.18,491.52c-3.89,4.26-9.35,5.1-14.9,6.46c-4.44,1.08-8.95,3.58-11.98,7.05
			c-0.61,0.65-0.72,1.66-0.22,2.45c0.6,0.93,1.84,1.2,2.78,0.61c0.64-0.45,1.29-0.84,1.95-1.21c10.09,19.49,14.63,51.41,14.63,75.13
			c0,24.7-4.66,53.54-17.8,53.54h-56.21c0.85-1.97,1.55-3.93,2.08-6.1c0.25-1.05-0.25-2.18-1.26-2.68
			c-1.23-0.62-2.73-0.03-3.26,1.23c-3.98,8.01-9.86,15.61-17.34,19.47c-5.35,2.69-11.89,3.95-17.71,2.15
			c-9.8-3.32-10.77-15.52-1.76-20.54c3.67-2.17,8.26-2.69,12.63-3.68c4.98-1.05,10.43-2.91,14.13-6.72c1.59-1.61-0.3-4.27-2.34-3.27
			c-6.35,3.32-13.27,2.84-20.27,4.18c-9.75,1.34-16.73,8.06-18.42,15.96h-56.97c2.41-6.01,5.97-16.33,5.97-24.92
			c0-9.1-2.74-15.31-5.39-21.32c-2.36-5.35-4.59-10.44-5.04-17.72c9.38-1.63,21.76-9.9,21.76-33.29c0-19.39-4.9-29.69-10.65-35.1
			c2.92-5.35,6.45-10.34,10.58-14.79c4.63-5,10.01-9.31,15.88-12.81c34.35-20.23,86.54-14.95,117.81,9.17
			c1.53,1.24,3.79,0.97,4.99-0.58c5.89-7.55,14.84-13.79,24.64-13.39c3.3,0.2,6.42,1.4,9.11,3.3c0.29,0.24,1.13,1,1.42,1.22
			l0.4,0.47C489.34,479.85,489.54,487.13,486.18,491.52z"/>
		<path d="M482.58,485.38c-0.05,0.71-1.08,0.82-1.28,0.14c-0.84-2.12-2.82-2.89-4.89-3.15c-4.36-0.38-8.67,1.55-11.88,4.54
			c-1.67,1.55-3.07,3.44-4.45,5.53c-0.35,0.6-1.33,0.23-1.21-0.44c0.73-5.39,4.58-10.39,9.77-12.37
			C473.49,477.44,482.6,478.64,482.58,485.38z"/>
		<path d="M336.27,569.22c-1.99-3.54-7.81-5.88-12.8-6.48c-1.2-1.87-4.43-3.55-9.78-3.11c-6.53,0.53-8.3,4.34-8.31,6.09
			c0,0.3,0.04,0.61,0.11,0.92c-3.45,2.35-5.23,6.34-4.29,10.02c0.41,1.63,2.28,6.29,10.25,7.45c2.39,6.01,5.43,10.74,5.56,10.95
			c0.28,0.43,0.76,0.68,1.26,0.68c0.11,0,0.23-0.01,0.34-0.03c0.25-0.06,6.25-1.48,11.57-4.34c0.67-0.37,0.96-1.19,0.67-1.9
			c-0.02-0.04-1.75-4.26-2.55-7.31c4.82-1.91,6.89-4.59,7.7-6.03C337.29,573.81,337.39,571.22,336.27,569.22z M318.97,592.51
			c-0.87-1.45-2.61-4.5-4.17-8.15c0.19,0.01,0.36,0.02,0.55,0.02c0.48,0,0.97-0.01,1.49-0.03c3.43-0.15,6.26-0.61,8.62-1.24
			c0.58,2.17,1.52,4.72,2.11,6.22C324.19,590.98,320.67,592.05,318.97,592.51z M333.38,574.67c-2.14,3.83-8.37,6.33-16.67,6.68
			c-6.96,0.31-11.67-1.73-12.61-5.42c-0.59-2.35,0.55-4.92,2.76-6.58c1.36,1.68,3.53,3.01,6.02,3.01c4.55,0,9.44-3.65,10.77-6.58
			c4.5,0.65,8.77,2.7,10,4.91C334.27,571.79,334.17,573.24,333.38,574.67z"/>
		<path d="M391.49,544.8c0,15.64-7.47,24.11-16.67,24.11c-9.21,0-14.45-10.79-14.45-24.11s5.24-24.12,14.45-24.12
			C384.02,520.68,391.49,529.16,391.49,544.8z"/>
		<path d="M286.26,534.37c0,11.98-5.71,18.47-12.76,18.47c-7.05,0-11.06-8.27-11.06-18.47c0-10.19,4.01-18.46,11.06-18.46
			C280.55,515.91,286.26,522.4,286.26,534.37z"/>
		<path d="M610.29,657.55c-0.1,1.8-1.55,3.2-3.31,3.31c-8.76,0.33-17.51-0.37-26.24-1.22c-2.71-0.33-2.7-4.25,0-4.57
			c6.56-0.69,13.11-1.11,19.68-1.3c2.19-0.02,4.37-0.03,6.56,0.09C608.91,653.96,610.4,655.61,610.29,657.55z"/>
	</g>
	<path fill="#CF0C0C" d="M138.25,779.48h65.06c-2.79,6.81-4.8,14.02-5.9,21.52h-59.16V779.48z"/>
	<path fill="#CF0C0C" d="M499.71,798.95c0,0.69,0.03,1.38,0.1,2.05H381.16c-1.11-7.5-3.11-14.71-5.9-21.52h124.45V798.95z"/>
	<path fill="#CF0C0C" d="M506.84,801h113.8c-0.05,0.43-0.12,0.86-0.21,1.28c-0.33,1.53-0.88,2.99-1.62,4.32
		c-2.7,4.93-7.94,8.27-13.95,8.27h-82.23c-5.27,0-9.96-2.58-12.85-6.54c-1.51-2.05-2.53-4.47-2.91-7.1
		C506.86,801.15,506.85,801.08,506.84,801z"/>
	<path fill="#CF0C0C" d="M627.78,779.48h72.18c-2.8,6.81-4.8,14.02-5.9,21.52h-66.38c0.07-0.67,0.1-1.36,0.1-2.05V779.48z"/>
	<path fill="#CF0C0C" d="M940.12,758.45V801h-62.31c-1.11-7.5-3.11-14.71-5.9-21.52L940.12,758.45z"/>
	<path fill="#7A7A7A" d="M197.06,825.42c0.57,4.94,1.53,9.75,2.85,14.42h-66.46c-7.95,0-14.42-6.47-14.42-14.42H197.06z"/>
	<path fill="#7A7A7A" d="M693.71,825.42c0.58,4.94,1.54,9.75,2.86,14.42h-317.9c1.32-4.67,2.28-9.48,2.86-14.42H693.71z"/>
	<path fill="#7A7A7A" d="M960.97,825.42c0,7.95-6.47,14.42-14.42,14.42h-71.23c1.32-4.67,2.28-9.48,2.85-14.42H960.97z"/>
</g>
</svg>
